<svg xmlns="http://www.w3.org/2000/svg" viewBox="503 322 496 497" fill="currentColor">
<path d="
M735.018372,719.203430
	C713.393860,719.203430 691.769409,719.203430 669.863159,719.203430
	C669.863159,708.209045 669.863159,697.628784 669.863159,686.516357
	C680.559143,686.516357 691.127075,686.516357 702.247559,686.516357
	C702.247559,684.217773 702.247131,682.441895 702.247559,680.666016
	C702.265259,611.507385 702.282349,542.348694 702.302429,473.190063
	C702.303833,468.349854 702.615295,463.481934 702.154602,458.687225
	C702.025940,457.348114 699.660339,455.175354 698.301147,455.160278
	C677.817200,454.933197 657.329895,455.002838 636.381104,455.002838
	C636.381104,476.957001 636.381104,498.694824 636.381104,520.717529
	C625.172424,520.717529 614.421387,520.717529 603.363098,520.717529
	C603.363098,488.337433 603.363098,455.932007 603.363098,423.142639
	C647.207581,423.142639 691.091553,423.142639 735.688843,423.142639
	C735.688843,521.041443 735.688843,618.963684 735.610168,717.560852
	C735.360474,718.558289 735.189392,718.880859 735.018372,719.203430
z"/>
<path d="
M868.734497,490.944550
	C868.773804,486.619965 868.813110,482.295380 868.897705,477.166626
	C868.873474,475.889832 868.803955,475.417206 868.734497,474.944550
	C868.778320,469.280365 868.822144,463.616150 868.909485,457.201599
	C868.608032,456.105804 868.263062,455.760345 867.918030,455.414856
	C846.943420,455.357788 825.968872,455.300659 804.308838,455.204224
	C803.369690,455.787079 803.115967,456.409241 802.862183,457.031403
	C802.808411,463.852020 802.709167,470.672668 802.707886,477.493286
	C802.695618,545.076538 802.699402,612.659790 802.698853,680.243042
	C802.698792,682.050903 802.698853,683.858765 802.698853,686.306702
	C808.007507,686.306702 813.100403,686.306702 818.770752,686.329224
	C820.219604,686.185242 821.091125,686.018738 821.962646,685.852295
	C825.595947,686.016357 829.229309,686.180481 833.495972,686.403198
	C834.437744,686.579224 834.756592,686.649536 835.085876,686.672668
	C835.085876,697.307922 835.085876,707.943115 835.085876,718.898926
	C813.245056,718.898926 791.503967,718.898926 769.437988,718.898926
	C769.437988,620.396484 769.437988,521.869446 769.437988,423.046509
	C813.459656,423.046509 857.363953,423.046509 901.578857,423.046509
	C901.578857,455.522247 901.578857,487.930939 901.578857,520.672363
	C890.903687,520.672363 880.172241,520.672363 868.853027,520.672363
	C868.853027,518.484802 868.853027,516.220825 868.900513,513.079407
	C868.876831,510.449371 868.805664,508.696747 868.734497,506.944153
	C868.773804,502.619690 868.813110,498.295258 868.897705,493.166626
	C868.873474,491.889862 868.803955,491.417206 868.734497,490.944550
z"/>
<path d="
M509.929230,554.364868
	C507.804626,554.239136 505.680054,554.113342 503.343475,553.975037
	C503.343475,476.972626 503.343475,400.213593 503.343475,323.112000
	C580.692017,323.112000 657.928650,323.112000 735.545166,323.112000
	C735.545166,333.708801 735.545166,344.440369 735.545166,355.768982
	C669.500854,355.768982 603.300415,355.768982 536.688965,355.768982
	C536.688965,422.107178 536.688965,487.853699 536.688965,554.232849
	C529.858337,554.232849 523.424500,554.232849 516.103516,554.181030
	C513.454041,554.207764 511.691620,554.286377 509.929230,554.364868
z"/>
<path d="
M536.445435,671.000366
	C536.445557,709.448547 536.445557,747.396667 536.445557,785.721069
	C603.109253,785.721069 669.200989,785.721069 735.593994,785.721069
	C735.593994,796.828979 735.593994,807.561218 735.593994,818.586487
	C658.243469,818.586487 581.014465,818.586487 503.448883,818.586487
	C503.448883,741.625854 503.448883,664.724121 503.448883,587.466064
	C514.229431,587.466064 525.101624,587.466064 536.445251,587.466064
	C536.445251,615.252930 536.445251,642.876648 536.445435,671.000366
z"/>
<path d="
M998.789917,746.000122
	C998.789673,770.450500 998.789673,794.400879 998.789673,818.631104
	C922.116821,818.631104 845.906189,818.631104 769.363708,818.631104
	C769.363708,807.692261 769.363708,796.964111 769.363708,785.753662
	C835.561829,785.753662 901.617554,785.753662 968.147827,785.753662
	C968.147827,719.386536 968.147827,653.497070 968.147827,587.358887
	C978.397156,587.358887 988.174438,587.358887 998.790100,587.358887
	C998.790100,640.040833 998.790100,692.770508 998.789917,746.000122
z"/>
<path d="
M965.996765,356.048462
	C941.849670,356.000519 917.702637,355.925507 893.555542,355.910858
	C854.414429,355.887146 815.273254,355.902954 776.132141,355.902100
	C773.997314,355.902039 771.862488,355.902100 769.325134,355.902100
	C769.325134,344.756989 769.325134,334.009491 769.996033,323.027832
	C771.119934,322.702972 771.572876,322.612305 772.025879,322.521606
	C772.461365,322.586578 772.896851,322.651581 774.088623,322.739258
	C777.238586,322.687744 779.632324,322.613617 782.026001,322.539490
	C784.850586,322.618866 787.675232,322.767090 790.499817,322.767609
	C857.793823,322.779510 925.087830,322.775604 992.381836,322.774567
	C994.348694,322.774536 996.315552,322.774536 998.555725,322.774536
	C998.555725,400.049164 998.555725,476.900696 998.555725,554.235779
	C994.852112,554.235779 991.390930,554.235779 987.018799,554.221069
	C981.063843,554.278931 976.019775,554.351562 970.975647,554.424133
	C970.069702,553.544861 968.848877,552.812073 968.351440,551.742737
	C967.905396,550.783875 968.254028,549.454712 968.253845,548.288940
	C968.245422,485.502502 968.237244,422.716095 968.248779,359.187256
	C967.511169,357.646057 966.753967,356.847260 965.996765,356.048462
z"/>
</svg>
